# xmcd
#
# Track frame offsets:
#	150
#	13012
#	17982
#	23866
#	32018
#	47853
#	57129
#	67633
#	80759
#	96371
#	109364
#	120749
#	133227
#	150956
#
# Disc length: 2180 seconds
#
# Revision: 0
# Processed by: cddbd v1.5.2PL0 Copyright (c) Steve Scherf et al.
# Submitted via: EasyCDDAExtractor 12.0.7.1
#
DISCID=b508820e
DTITLE=Владимир Высоцкий - Выйти живым из боя 
DYEAR=2011
DGENRE=Chanson
TTITLE0=Штрафные батальоны
TTITLE1=Песня о госпитале
TTITLE2=Братские могилы
TTITLE3=Случай в ресторане
TTITLE4=Як - истребитель
TTITLE5=Песня о земле
TTITLE6=Он не вернулся из боя
TTITLE7=Тот, который не стрелял
TTITLE8=Мы вращаем землю
TTITLE9=Песня о друге
TTITLE10=Вершина
TTITLE11=Прощание с горами
TTITLE12=Спасите наши души
TTITLE13=Гимн морю и горам
EXTD=
EXTT0=
EXTT1=
EXTT2=
EXTT3=
EXTT4=
EXTT5=
EXTT6=
EXTT7=
EXTT8=
EXTT9=
EXTT10=
EXTT11=
EXTT12=
EXTT13=
PLAYORDER=
